#!OML:ASF X:\für Bonn\!DataBase\2005_08_12_Daniel\c3d\Daniel.ASF
:FULLY-SPECIFIED
:DEGREES
16
root 3.93507 16.8845 0.144867 -416.845 -89.4356 409.054
lowerback 17.9271 -0.50841 5.13853
upperback 4.9559 -0.181204 -2.47106
thorax -4.71245 -0.232202 -5.52407
lowerneck -7.52227 2.51146 1.93959
upperneck -4.55894 2.9184 -7.84324
head 0.0122496 1.32079 -2.76048
rclavicle -4.87022e-015 -1.07344e-014
rhumerus -40.1128 23.2693 -107.042
rradius 62.6247
rwrist 2.23641
rhand -17.2784 370.176
rfingers 7.12502
rthumb 8.96674 -19.6132
lclavicle -4.87022e-015 -1.07344e-014
lhumerus -220.878 195.781 -79.4217
lradius 79.8382
lwrist 4.93745
lhand -10.8671 3.99779
lfingers 7.12502
lthumb 15.1485 33.4233
rfemur -0.819249 20.131 24.9602
rtibia 33.7811
rfoot -44.0208 -18.8095
rtoes -9.19077
lfemur -202.799 191.662 -193.384
ltibia 45.8289
lfoot 343.906 4.19531
ltoes 1.93413
17
root 3.94896 16.8798 0.147608 -419.655 -89.4916 411.902
lowerback 18.019 -0.588725 5.07442
upperback 5.03949 -0.298662 -2.42792
thorax -4.68709 -0.289603 -5.41497
lowerneck -7.52016 2.63585 2.05797
upperneck -4.81929 3.0541 -7.88438
head -0.0606112 1.38929 -2.7941
rclavicle 2.68359e-015 -1.74931e-014
rhumerus -40.0551 22.8472 -106.736
rradius 62.8885
rwrist 2.85698
rhand -17.0943 369.838
rfingers 7.12502
rthumb 9.14435 -19.9435
lclavicle 2.68359e-015 -1.74931e-014
lhumerus -220.758 195.266 -79.6775
lradius 79.7382
lwrist 5.36131
lhand -11.6945 4.18395
lfingers 7.12502
lthumb 14.3514 33.6679
rfemur -1.02783 20.0985 24.9292
rtibia 33.9505
rfoot -43.9896 -18.7625
rtoes -9.074
lfemur -202.726 191.615 -193.322
ltibia 46.0041
lfoot 343.727 4.01233
ltoes 1.58709
18
root 3.9618 16.8767 0.150548 -422.282 -89.5264 414.557
lowerback 18.1291 -0.675579 5.00442
upperback 5.12608 -0.426563 -2.40035
thorax -4.66895 -0.352599 -5.31703
lowerneck -7.48761 2.7463 2.22929
upperneck -5.08566 3.16647 -7.96613
head -0.139791 1.44567 -2.85266
rclavicle 3.72721e-015 2.54444e-014
rhumerus -39.9909 22.4397 -106.438
rradius 63.1161
rwrist 3.51385
rhand -16.9331 369.517
rfingers 7.12502
rthumb 9.29985 -20.2582
lclavicle 3.72721e-015 2.54444e-014
lhumerus -220.638 194.812 -79.9376
lradius 79.632
lwrist 5.77778
lhand -12.4365 4.43599
lfingers 7.12502
lthumb 13.6363 33.9693
rfemur -1.19511 20.1537 24.9135
rtibia 34.0949
rfoot -44.0246 -18.7684
rtoes -8.95116
lfemur -202.648 191.582 -193.281
ltibia 46.1328
lfoot 343.593 3.87214
ltoes 1.32718
19
root 3.97231 16.8749 0.154262 -427.467 -89.5639 419.779
lowerback 18.2323 -0.747891 4.94456
upperback 5.21268 -0.534633 -2.38316
thorax -4.64416 -0.405771 -5.24025
lowerneck -7.47425 2.8432 2.34649
upperneck -5.35187 3.26595 -7.97624
head -0.21883 1.49619 -2.87746
rclavicle 2.43511e-015 2.98177e-014
rhumerus -39.9388 22.0028 -106.13
rradius 63.3728
rwrist 4.23282
rhand -16.7792 369.191
rfingers 7.12502
rthumb 9.44835 -20.5769
lclavicle 2.43511e-015 2.98177e-014
lhumerus -220.545 194.374 -80.1845
lradius 79.5469
lwrist 6.18167
lhand -13.0489 4.59323
lfingers 7.12502
lthumb 13.046 34.1653
rfemur -1.35729 20.1823 24.8819
rtibia 34.2159
rfoot -44.0057 -18.7801
rtoes -8.94651
lfemur -202.571 191.568 -193.243
ltibia 46.2099
lfoot 343.456 3.77185
ltoes 1.02189
20
root 3.98162 16.8724 0.158969 -431.354 -89.5949 423.706
lowerback 18.3394 -0.827485 4.90974
upperback 5.30168 -0.648949 -2.38286
thorax -4.61935 -0.462224 -5.19462
lowerneck -7.48899 2.94382 2.51315
upperneck -5.59191 3.36852 -8.0058
head -0.283128 1.54611 -2.91766
rclavicle -9.93923e-017 4.77083e-015
rhumerus -39.8674 21.5326 -105.827
rradius 63.6205
rwrist 4.95913
rhand -16.5542 368.871
rfingers 7.12502
rthumb 9.6655 -20.8877
lclavicle -9.93923e-017 4.77083e-015
lhumerus -220.461 194.034 -80.4354
lradius 79.4502
lwrist 6.60887
lhand -13.6631 4.80177
lfingers 7.12502
lthumb 12.4539 34.4107
rfemur -1.49872 20.2009 24.847
rtibia 34.3109
rfoot -44.009 -18.7331
rtoes -8.84239
lfemur -202.496 191.568 -193.215
ltibia 46.2451
lfoot 343.349 3.68288
ltoes 0.718524
21
root 3.98982 16.8719 0.164591 -434.906 -89.6208 427.315
lowerback 18.439 -0.909842 4.86365
upperback 5.38113 -0.767476 -2.36698
thorax -4.601 -0.520867 -5.1245
lowerneck -7.45199 3.03081 2.61372
upperneck -5.85729 3.45589 -8.02871
head -0.366587 1.59071 -2.94496
rclavicle 7.95139e-016 -7.95139e-016
rhumerus -39.8356 21.0574 -105.512
rradius 63.8702
rwrist 5.83626
rhand -16.3989 368.536
rfingers 7.12502
rthumb 9.81533 -21.2149
lclavicle 7.95139e-016 -7.95139e-016
lhumerus -220.393 193.714 -80.6561
lradius 79.3665
lwrist 7.07472
lhand -14.2048 4.97541
lfingers 7.12502
lthumb 11.9317 34.6154
rfemur -1.64929 20.2086 24.8029
rtibia 34.3832
rfoot -43.9667 -18.7777
rtoes -8.80654
lfemur -202.442 191.581 -193.186
ltibia 46.2432
lfoot 343.269 3.61891
ltoes 0.44169
22
root 3.99685 16.8718 0.17068 -437.71 -89.6385 430.167
lowerback 18.5447 -0.998892 4.79822
upperback 5.47807 -0.899496 -2.35068
thorax -4.56816 -0.585891 -5.0395
lowerneck -7.4654 3.13509 2.74166
upperneck -6.11626 3.56384 -8.05916
head -0.437518 1.64336 -2.9789
rclavicle 7.7526e-015 3.29983e-014
rhumerus -39.7998 20.6037 -105.183
rradius 64.1447
rwrist 6.69359
rhand -16.191 368.239
rfingers 7.12502
rthumb 10.0159 -21.5024
lclavicle 7.7526e-015 3.29983e-014
lhumerus -220.304 193.447 -80.8761
lradius 79.2958
lwrist 7.5717
lhand -14.6996 5.21018
lfingers 7.12502
lthumb 11.4545 34.8773
rfemur -1.76191 20.2436 24.7664
rtibia 34.4414
rfoot -43.9391 -18.7923
rtoes -8.68669
lfemur -202.375 191.616 -193.17
ltibia 46.2064
lfoot 343.177 3.57575
ltoes 0.0836795
23
root 4.00293 16.8707 0.178666 -440.798 -89.6557 433.31
lowerback 18.6731 -1.09424 4.74183
upperback 5.5488 -1.03543 -2.33129
thorax -4.5755 -0.654085 -4.95526
lowerneck -7.4466 3.23465 2.82791
upperneck -6.35806 3.67083 -8.07397
head -0.50968 1.69687 -3.00032
rclavicle -2.08724e-015 -1.19271e-014
rhumerus -39.8219 20.1565 -104.878
rradius 64.423
rwrist 7.61356
rhand -15.9762 367.92
rfingers 7.12502
rthumb 10.2231 -21.8119
lclavicle -2.08724e-015 -1.19271e-014
lhumerus -220.238 193.18 -81.0684
lradius 79.1803
lwrist 8.04523
lhand -15.2439 5.38161
lfingers 7.12502
lthumb 10.9295 35.0771
rfemur -1.88712 20.2362 24.7085
rtibia 34.4868
rfoot -43.8779 -18.8358
rtoes -8.73925
lfemur -202.316 191.669 -193.16
ltibia 46.1414
lfoot 343.106 3.54121
ltoes -0.203505
24
root 4.00792 16.87 0.186293 -441.773 -89.6722 434.333
lowerback 18.8109 -1.18606 4.68913
upperback 5.63735 -1.1673 -2.31337
thorax -4.56756 -0.720043 -4.87525
lowerneck -7.4839 3.32779 2.92336
upperneck -6.5891 3.76736 -8.10151
head -0.568981 1.74302 -3.0273
rclavicle -3.97569e-016 -8.34896e-015
rhumerus -39.8196 19.7 -104.545
rradius 64.7199
rwrist 8.48782
rhand -15.7378 367.575
rfingers 7.12502
rthumb 10.4531 -22.1451
lclavicle -3.97569e-016 -8.34896e-015
lhumerus -220.125 192.98 -81.2632
lradius 79.0409
lwrist 8.54272
lhand -15.7364 5.58284
lfingers 7.12502
lthumb 10.4544 35.3029
rfemur -1.98257 20.2699 24.6733
rtibia 34.5216
rfoot -43.8525 -18.8456
rtoes -8.61655
lfemur -202.234 191.74 -193.152
ltibia 46.0424
lfoot 343.03 3.53107
ltoes -0.442167
25
root 4.01145 16.8693 0.194993 -445.34 -89.6869 437.948
lowerback 18.9498 -1.26701 4.6464
upperback 5.72202 -1.28343 -2.30329
thorax -4.56234 -0.778417 -4.8127
lowerneck -7.47465 3.40328 2.99676
upperneck -6.83536 3.84212 -8.11303
head -0.64321 1.77995 -3.04646
rclavicle 1.18277e-014 2.78299e-014
rhumerus -39.8179 19.1598 -104.207
rradius 64.9788
rwrist 9.4197
rhand -15.5183 367.384
rfingers 7.12502
rthumb 10.6648 -22.3255
lclavicle 1.18277e-014 2.78299e-014
lhumerus -220.006 192.854 -81.444
lradius 78.8763
lwrist 9.10365
lhand -16.2335 5.76592
lfingers 7.12502
lthumb 9.97487 35.5096
rfemur -2.07248 20.3036 24.6309
rtibia 34.5485
rfoot -43.7826 -18.9267
rtoes -8.5821
lfemur -202.151 191.812 -193.159
ltibia 45.916
lfoot 342.941 3.55857
ltoes -0.654743
26
root 4.01539 16.8698 0.205308 -442.844 -89.7106 435.517
lowerback 19.1056 -1.36436 4.62789
upperback 5.79308 -1.41413 -2.28064
thorax -4.58194 -0.844612 -4.74666
lowerneck -7.49339 3.47413 3.00322
upperneck -7.05456 3.91831 -8.07158
head -0.706611 1.818 -3.03439
rclavicle -7.95139e-016 -9.14409e-015
rhumerus -39.8607 18.6552 -103.874
rradius 65.2565
rwrist 10.3315
rhand -15.3711 367.143
rfingers 7.12502
rthumb 10.8068 -22.559
lclavicle -7.95139e-016 -9.14409e-015
lhumerus -219.912 192.715 -81.5948
lradius 78.7194
lwrist 9.63156
lhand -16.7446 5.97883
lfingers 7.12502
lthumb 9.48179 35.7455
rfemur -2.1791 20.2753 24.5737
rtibia 34.5624
rfoot -43.7061 -18.9526
rtoes -8.6644
lfemur -202.12 191.897 -193.15
ltibia 45.7638
lfoot 342.929 3.58036
ltoes -0.603357
27
root 4.01737 16.8704 0.216246 -444.57 -89.7545 437.319
lowerback 19.2405 -1.45344 4.64375
upperback 5.86801 -1.52907 -2.26673
thorax -4.58492 -0.902597 -4.71325
lowerneck -7.52471 3.5407 2.99925
upperneck -7.26932 3.9894 -8.02961
head -0.767069 1.85319 -3.02022
rclavicle -1.68967e-015 -1.19271e-014
rhumerus -39.885 18.1096 -103.525
rradius 65.5184
rwrist 11.2337
rhand -15.149 366.95
rfingers 7.12502
rthumb 11.0211 -22.7407
lclavicle -1.68967e-015 -1.19271e-014
lhumerus -219.796 192.617 -81.7538
lradius 78.5395
lwrist 10.2223
lhand -17.1975 6.21714
lfingers 7.12502
lthumb 9.04472 36.0032
rfemur -2.28546 20.253 24.5321
rtibia 34.5653
rfoot -43.6147 -18.9515
rtoes -8.72129
lfemur -202.094 191.97 -193.122
ltibia 45.5962
lfoot 342.883 3.62593
ltoes -0.529981
28
root 4.02062 16.8715 0.227932 -445.213 -89.7793 438.04
lowerback 19.4175 -1.52902 4.67829
upperback 5.92589 -1.62114 -2.26702
thorax -4.62613 -0.95042 -4.71049
lowerneck -7.53491 3.56693 2.91826
upperneck -7.47342 4.0154 -7.92426
head -0.83353 1.86812 -2.97178
rclavicle -1.39149e-015 -1.07344e-014
rhumerus -39.9564 17.5154 -103.171
rradius 65.7995
rwrist 12.1022
rhand -14.9805 366.752
rfingers 7.12502
rthumb 11.1836 -22.9297
lclavicle -1.39149e-015 -1.07344e-014
lhumerus -219.718 192.582 -81.8727
lradius 78.3609
lwrist 10.8215
lhand -17.626 6.43349
lfingers 7.12502
lthumb 8.63124 36.237
rfemur -2.38251 20.2926 24.4813
rtibia 34.5541
rfoot -43.5452 -19.014
rtoes -8.77802
lfemur -202.08 192.068 -193.121
ltibia 45.4287
lfoot 342.831 3.67639
ltoes -0.352744
